<?xml version="1.0" standalone="no"?><!DOCTYPE svg PUBLIC "-//W3C//DTD SVG 1.1//EN" "http://www.w3.org/Graphics/SVG/1.1/DTD/svg11.dtd"><svg t="1659156025599" class="icon" viewBox="0 0 1024 1024" version="1.1" xmlns="http://www.w3.org/2000/svg" p-id="40971" xmlns:xlink="http://www.w3.org/1999/xlink" width="200" height="200"><defs><style type="text/css"></style></defs><path d="M149.333333 128H213.333333V76.8c0-18.773333 15.36-34.133333 34.133334-34.133333h187.733333c18.773333 0 34.133333 15.36 34.133333 34.133333V128h64A64 64 0 0 1 597.333333 192V213.333333h341.333334v640h-341.333334v21.333334a64 64 0 0 1-64 64h-384A64 64 0 0 1 85.333333 874.666667v-682.666667A64 64 0 0 1 149.333333 128M768 298.666667v85.333333h85.333333V298.666667h-85.333333m-170.666667 0v85.333333h85.333334V298.666667h-85.333334m-170.666666 0v85.333333h85.333333V298.666667h-85.333333m170.666666 384v85.333333h85.333334v-85.333333h-85.333334m170.666667 0v85.333333h85.333333v-85.333333h-85.333333m-341.333333 0v85.333333h85.333333v-85.333333h-85.333333z" fill="#639be9" p-id="40972"></path></svg>