<?xml version="1.0" standalone="no"?><!DOCTYPE svg PUBLIC "-//W3C//DTD SVG 1.1//EN" "http://www.w3.org/Graphics/SVG/1.1/DTD/svg11.dtd"><svg t="1659157718554" class="icon" viewBox="0 0 1024 1024" version="1.1" xmlns="http://www.w3.org/2000/svg" p-id="21266" xmlns:xlink="http://www.w3.org/1999/xlink" width="200" height="200"><defs><style type="text/css"></style></defs><path d="M256 917.333333A149.333333 149.333333 0 1 1 399.146667 725.333333H640v-85.333333h85.333333V394.325333L629.632 298.666667H384v85.333333H128V128h256v85.333333h245.632L768 74.922667 949.034667 256 810.666667 394.282667V640h85.333333v256h-256v-85.333333H399.146667A149.376 149.376 0 0 1 256 917.333333z m0-213.333333a64 64 0 1 0 0.042667 128.042667A64 64 0 0 0 256 704z m554.666667 21.333333h-85.333334v85.333334h85.333334v-85.333334zM768 195.669333L707.669333 256 768 316.330667 828.330667 256 768 195.669333zM298.666667 213.333333H213.333333v85.333334h85.333334V213.333333z" fill="#639be9" p-id="21267"></path></svg>