<?xml version="1.0" standalone="no"?><!DOCTYPE svg PUBLIC "-//W3C//DTD SVG 1.1//EN" "http://www.w3.org/Graphics/SVG/1.1/DTD/svg11.dtd"><svg t="1659156278756" class="icon" viewBox="0 0 1024 1024" version="1.1" xmlns="http://www.w3.org/2000/svg" p-id="20390" xmlns:xlink="http://www.w3.org/1999/xlink" width="200" height="200"><defs><style type="text/css"></style></defs><path d="M682.666667 384h-128v234.666667a106.666667 106.666667 0 0 1-106.666667 106.666666A106.666667 106.666667 0 0 1 341.333333 618.666667a106.666667 106.666667 0 0 1 106.666667-106.666667c24.32 0 46.08 8.106667 64 21.333333V298.666667h170.666667m128-170.666667H213.333333a85.333333 85.333333 0 0 0-85.333333 85.333333v597.333334a85.333333 85.333333 0 0 0 85.333333 85.333333h597.333334a85.333333 85.333333 0 0 0 85.333333-85.333333V213.333333a85.333333 85.333333 0 0 0-85.333333-85.333333z" fill="#639be9" p-id="20391"></path></svg>