<?xml version="1.0" standalone="no"?><!DOCTYPE svg PUBLIC "-//W3C//DTD SVG 1.1//EN" "http://www.w3.org/Graphics/SVG/1.1/DTD/svg11.dtd"><svg t="1659157090544" class="icon" viewBox="0 0 1024 1024" version="1.1" xmlns="http://www.w3.org/2000/svg" p-id="21659" xmlns:xlink="http://www.w3.org/1999/xlink" width="200" height="200"><defs><style type="text/css"></style></defs><path d="M388.053333 661.333333H330.794667V349.226667c20.650667-3.754667 49.28-6.570667 88.234666-6.570667 42.24 0 73.216 8.917333 93.44 25.813333 18.773333 15.488 30.933333 40.362667 30.933334 69.930667 0 30.037333-9.386667 54.912-27.221334 71.808-22.997333 22.997333-59.136 33.792-99.968 33.792-10.794667 0-20.650667-0.469333-28.16-1.877333V661.333333z m33.322667-274.56c-15.957333 0-27.221333 1.408-33.28 2.816v107.008c6.997333 1.877333 16.384 2.346667 28.16 2.346667 43.136 0 69.418667-21.12 69.418667-58.197333 0-35.2-24.405333-53.973333-64.298667-53.973334z" fill="#639be9" p-id="21660"></path><path d="M617.173333 666.496c-27.733333 0-52.565333-7.04-69.461333-16.426667l11.264-41.770666c13.141333 7.978667 37.973333 16.426667 58.666667 16.426666 25.344 0 36.608-10.325333 36.608-25.344 0-15.488-9.386667-23.466667-37.546667-33.322666-44.586667-15.488-63.36-39.893333-62.890667-66.645334 0-40.362667 33.28-71.808 86.357334-71.808 25.344 0 47.36 6.570667 60.544 13.610667l-11.264 40.832a102.656 102.656 0 0 0-48.341334-13.141333c-20.650667 0-31.914667 9.856-31.914666 23.936 0 14.549333 10.794667 21.589333 39.893333 31.914666 41.301333 15.018667 60.544 36.138667 61.013333 69.930667 0 41.301333-32.426667 71.808-92.928 71.808z" fill="#639be9" p-id="21661"></path><path d="M736.341333 120.874667a2036.096 2036.096 0 0 0-448.682666 0c-85.845333 9.6-155.178667 77.226667-165.248 163.498666a1959.338667 1959.338667 0 0 0 0 455.253334c10.069333 86.272 79.36 153.898667 165.248 163.498666 147.882667 16.512 300.8 16.512 448.682666 0 85.845333-9.6 155.178667-77.226667 165.248-163.498666a1958.997333 1958.997333 0 0 0 0-455.253334c-10.069333-86.272-79.36-153.898667-165.248-163.498666z m-441.6 63.573333a1972.053333 1972.053333 0 0 1 434.517334 0c56.746667 6.4 102.186667 51.157333 108.8 107.392a1895.296 1895.296 0 0 1 0 440.32c-6.613333 56.234667-52.053333 101.034667-108.8 107.349333a1971.925333 1971.925333 0 0 1-434.517334 0c-56.746667-6.314667-102.186667-51.114667-108.8-107.349333a1895.296 1895.296 0 0 1 0-440.32c6.613333-56.234667 52.053333-101.034667 108.8-107.349333z" fill="#639be9" p-id="21662"></path></svg>