<?xml version="1.0" standalone="no"?><!DOCTYPE svg PUBLIC "-//W3C//DTD SVG 1.1//EN" "http://www.w3.org/Graphics/SVG/1.1/DTD/svg11.dtd"><svg t="1659087595557" class="icon" viewBox="0 0 1024 1024" version="1.1" xmlns="http://www.w3.org/2000/svg" p-id="20807" xmlns:xlink="http://www.w3.org/1999/xlink" width="200" height="200"><defs><style type="text/css"></style></defs><path d="M810.666667 512h141.653333l-211.2 211.2L529.92 512h194.133333a248.32 248.32 0 0 0-73.813333-181.333333 256 256 0 0 0-361.813333 0 256.469333 256.469333 0 0 0 0 362.24 256.341333 256.341333 0 0 0 290.986666 49.92l62.72 62.72a340.906667 340.906667 0 0 1-414.293333-52.48c-133.12-133.12-132.693333-349.013333 0.426667-482.133334 134.4-133.546667 349.013333-133.973333 482.56-0.426666A340.48 340.48 0 0 1 810.666667 512z" fill="#639be9" p-id="20808"></path></svg>