<?xml version="1.0" standalone="no"?><!DOCTYPE svg PUBLIC "-//W3C//DTD SVG 1.1//EN" "http://www.w3.org/Graphics/SVG/1.1/DTD/svg11.dtd"><svg t="1659156717267" class="icon" viewBox="0 0 1024 1024" version="1.1" xmlns="http://www.w3.org/2000/svg" p-id="20668" xmlns:xlink="http://www.w3.org/1999/xlink" width="200" height="200"><defs><style type="text/css"></style></defs><path d="M554.666667 768h42.666666a42.666667 42.666667 0 0 1 42.666667 42.666667h298.666667v85.333333h-298.666667a42.666667 42.666667 0 0 1-42.666667 42.666667h-170.666666a42.666667 42.666667 0 0 1-42.666667-42.666667H85.333333v-85.333333h298.666667a42.666667 42.666667 0 0 1 42.666667-42.666667h42.666666v-85.333333H170.666667a42.666667 42.666667 0 0 1-42.666667-42.666667v-170.666667a42.666667 42.666667 0 0 1 42.666667-42.666666h682.666666a42.666667 42.666667 0 0 1 42.666667 42.666666v170.666667a42.666667 42.666667 0 0 1-42.666667 42.666667h-298.666666v85.333333M170.666667 85.333333h682.666666a42.666667 42.666667 0 0 1 42.666667 42.666667v170.666667a42.666667 42.666667 0 0 1-42.666667 42.666666H170.666667a42.666667 42.666667 0 0 1-42.666667-42.666666V128a42.666667 42.666667 0 0 1 42.666667-42.666667m213.333333 170.666667h42.666667V170.666667H384v85.333333m0 341.333333h42.666667v-85.333333H384v85.333333M213.333333 170.666667v85.333333h85.333334V170.666667H213.333333m0 341.333333v85.333333h85.333334v-85.333333H213.333333z" fill="#639be9" p-id="20669"></path></svg>