<?xml version="1.0" standalone="no"?><!DOCTYPE svg PUBLIC "-//W3C//DTD SVG 1.1//EN" "http://www.w3.org/Graphics/SVG/1.1/DTD/svg11.dtd"><svg t="1658999774758" class="icon" viewBox="0 0 1024 1024" version="1.1" xmlns="http://www.w3.org/2000/svg" p-id="20529" xmlns:xlink="http://www.w3.org/1999/xlink" width="200" height="200"><defs><style type="text/css"></style></defs><path d="M549.12 642.986667l-108.373333-107.093334 1.28-1.28A747.52 747.52 0 0 0 600.32 256H725.333333V170.666667h-298.666666V85.333333H341.333333v85.333334H42.666667v85.333333h476.586666C490.666667 337.92 445.44 416 384 484.266667 344.32 440.32 311.466667 392.106667 285.44 341.333333h-85.333333c31.146667 69.546667 73.813333 135.253333 127.146666 194.56l-217.173333 214.186667L170.666667 810.666667l213.333333-213.333334 132.693333 132.693334 32.426667-87.04M789.333333 426.666667h-85.333333L512 938.666667h85.333333l47.786667-128h202.666667L896 938.666667h85.333333l-192-512m-111.786666 298.666666l69.12-184.746666L815.786667 725.333333h-138.24z" fill="" p-id="20530"></path></svg>